<mxfile host="app.diagrams.net" modified="2023-04-03T07:22:12.141Z" agent="Mozilla/5.0 (Macintosh; Intel Mac OS X 10_15_7) AppleWebKit/537.36 (KHTML, like Gecko) Chrome/111.0.0.0 Safari/537.36" etag="Egbkba77RqAMaglcAtzi" version="21.1.2" type="github">
  <diagram name="第 1 页" id="x_4YVfrAARGBKb9YT0we">
    <mxGraphModel dx="2069" dy="1964" grid="1" gridSize="10" guides="1" tooltips="1" connect="1" arrows="1" fold="1" page="1" pageScale="1" pageWidth="827" pageHeight="1169" math="0" shadow="0">
      <root>
        <mxCell id="0" />
        <mxCell id="1" parent="0" />
        <mxCell id="0TGctXTPVE-8iXlW17Bm-45" value="" style="rounded=0;whiteSpace=wrap;html=1;" vertex="1" parent="1">
          <mxGeometry x="-30" y="30" width="730" height="880" as="geometry" />
        </mxCell>
        <mxCell id="0TGctXTPVE-8iXlW17Bm-1" value="&lt;font style=&quot;font-size: 18px;&quot;&gt;TaskSpliteConversation&lt;/font&gt;" style="rounded=1;whiteSpace=wrap;html=1;sketch=1;curveFitting=1;jiggle=2;fillColor=#d5e8d4;strokeColor=#82b366;" vertex="1" parent="1">
          <mxGeometry x="210" y="160" width="270" height="60" as="geometry" />
        </mxCell>
        <mxCell id="0TGctXTPVE-8iXlW17Bm-32" style="edgeStyle=orthogonalEdgeStyle;rounded=0;orthogonalLoop=1;jettySize=auto;html=1;entryX=0;entryY=0.5;entryDx=0;entryDy=0;exitX=0.5;exitY=1;exitDx=0;exitDy=0;" edge="1" parent="1" source="0TGctXTPVE-8iXlW17Bm-2" target="0TGctXTPVE-8iXlW17Bm-31">
          <mxGeometry relative="1" as="geometry" />
        </mxCell>
        <mxCell id="0TGctXTPVE-8iXlW17Bm-36" value="output&amp;nbsp;" style="edgeLabel;html=1;align=center;verticalAlign=middle;resizable=0;points=[];" vertex="1" connectable="0" parent="0TGctXTPVE-8iXlW17Bm-32">
          <mxGeometry x="-0.5213" y="2" relative="1" as="geometry">
            <mxPoint as="offset" />
          </mxGeometry>
        </mxCell>
        <mxCell id="0TGctXTPVE-8iXlW17Bm-2" value="&lt;font style=&quot;font-size: 18px;&quot;&gt;Task1Conversation&lt;/font&gt;" style="rounded=1;whiteSpace=wrap;html=1;sketch=1;curveFitting=1;jiggle=2;fillColor=#d5e8d4;strokeColor=#82b366;" vertex="1" parent="1">
          <mxGeometry x="-7.5" y="560" width="180" height="60" as="geometry" />
        </mxCell>
        <mxCell id="0TGctXTPVE-8iXlW17Bm-8" style="edgeStyle=orthogonalEdgeStyle;rounded=1;orthogonalLoop=1;jettySize=auto;html=1;entryX=0.454;entryY=0;entryDx=0;entryDy=0;entryPerimeter=0;strokeWidth=2;" edge="1" parent="1" source="0TGctXTPVE-8iXlW17Bm-7" target="0TGctXTPVE-8iXlW17Bm-1">
          <mxGeometry relative="1" as="geometry" />
        </mxCell>
        <mxCell id="0TGctXTPVE-8iXlW17Bm-9" value="input" style="edgeLabel;html=1;align=center;verticalAlign=middle;resizable=0;points=[];" vertex="1" connectable="0" parent="0TGctXTPVE-8iXlW17Bm-8">
          <mxGeometry x="-0.3012" y="-3" relative="1" as="geometry">
            <mxPoint as="offset" />
          </mxGeometry>
        </mxCell>
        <mxCell id="0TGctXTPVE-8iXlW17Bm-7" value="&lt;font style=&quot;font-size: 16px;&quot;&gt;&lt;b&gt;原始Prompt&lt;/b&gt;&lt;/font&gt;" style="text;html=1;strokeColor=none;fillColor=#67AB9F;align=center;verticalAlign=middle;whiteSpace=wrap;rounded=0;fillStyle=hatch;" vertex="1" parent="1">
          <mxGeometry x="270" y="50" width="125" height="30" as="geometry" />
        </mxCell>
        <mxCell id="0TGctXTPVE-8iXlW17Bm-33" style="edgeStyle=orthogonalEdgeStyle;rounded=0;orthogonalLoop=1;jettySize=auto;html=1;entryX=0.5;entryY=0;entryDx=0;entryDy=0;" edge="1" parent="1" source="0TGctXTPVE-8iXlW17Bm-10" target="0TGctXTPVE-8iXlW17Bm-31">
          <mxGeometry relative="1" as="geometry" />
        </mxCell>
        <mxCell id="0TGctXTPVE-8iXlW17Bm-40" value="output" style="edgeLabel;html=1;align=center;verticalAlign=middle;resizable=0;points=[];" vertex="1" connectable="0" parent="0TGctXTPVE-8iXlW17Bm-33">
          <mxGeometry x="0.1833" y="2" relative="1" as="geometry">
            <mxPoint as="offset" />
          </mxGeometry>
        </mxCell>
        <mxCell id="0TGctXTPVE-8iXlW17Bm-10" value="&lt;font style=&quot;font-size: 18px;&quot;&gt;Task2Conversation&lt;/font&gt;" style="rounded=1;whiteSpace=wrap;html=1;sketch=1;curveFitting=1;jiggle=2;fillColor=#d5e8d4;strokeColor=#82b366;" vertex="1" parent="1">
          <mxGeometry x="242.5" y="560" width="180" height="60" as="geometry" />
        </mxCell>
        <mxCell id="0TGctXTPVE-8iXlW17Bm-21" style="edgeStyle=orthogonalEdgeStyle;rounded=0;orthogonalLoop=1;jettySize=auto;html=1;" edge="1" parent="1" source="0TGctXTPVE-8iXlW17Bm-11" target="0TGctXTPVE-8iXlW17Bm-17">
          <mxGeometry relative="1" as="geometry" />
        </mxCell>
        <mxCell id="0TGctXTPVE-8iXlW17Bm-22" style="edgeStyle=orthogonalEdgeStyle;rounded=0;orthogonalLoop=1;jettySize=auto;html=1;" edge="1" parent="1" source="0TGctXTPVE-8iXlW17Bm-11" target="0TGctXTPVE-8iXlW17Bm-19">
          <mxGeometry relative="1" as="geometry" />
        </mxCell>
        <mxCell id="0TGctXTPVE-8iXlW17Bm-23" style="edgeStyle=orthogonalEdgeStyle;rounded=0;orthogonalLoop=1;jettySize=auto;html=1;entryX=0.5;entryY=0;entryDx=0;entryDy=0;" edge="1" parent="1" source="0TGctXTPVE-8iXlW17Bm-11" target="0TGctXTPVE-8iXlW17Bm-20">
          <mxGeometry relative="1" as="geometry" />
        </mxCell>
        <mxCell id="0TGctXTPVE-8iXlW17Bm-11" value="&lt;font style=&quot;&quot;&gt;&lt;span style=&quot;font-size: 18px;&quot;&gt;任务调度模块&lt;/span&gt;&lt;br&gt;&lt;font color=&quot;#660000&quot; style=&quot;font-size: 12px;&quot;&gt;&lt;b&gt;任务拆分和调度&lt;/b&gt;&lt;/font&gt;&lt;br&gt;&lt;/font&gt;" style="rounded=0;whiteSpace=wrap;html=1;fillColor=#ffe6cc;strokeColor=#d79b00;" vertex="1" parent="1">
          <mxGeometry x="237.5" y="300" width="190" height="60" as="geometry" />
        </mxCell>
        <mxCell id="0TGctXTPVE-8iXlW17Bm-14" style="edgeStyle=orthogonalEdgeStyle;rounded=1;orthogonalLoop=1;jettySize=auto;html=1;entryX=0.454;entryY=0;entryDx=0;entryDy=0;entryPerimeter=0;strokeWidth=2;" edge="1" parent="1">
          <mxGeometry relative="1" as="geometry">
            <mxPoint x="332" y="220" as="sourcePoint" />
            <mxPoint x="332" y="300" as="targetPoint" />
          </mxGeometry>
        </mxCell>
        <mxCell id="0TGctXTPVE-8iXlW17Bm-15" value="output&amp;nbsp; task list&amp;nbsp;completion&amp;nbsp;" style="edgeLabel;html=1;align=center;verticalAlign=middle;resizable=0;points=[];" vertex="1" connectable="0" parent="0TGctXTPVE-8iXlW17Bm-14">
          <mxGeometry x="-0.3012" y="-3" relative="1" as="geometry">
            <mxPoint as="offset" />
          </mxGeometry>
        </mxCell>
        <mxCell id="0TGctXTPVE-8iXlW17Bm-24" style="edgeStyle=orthogonalEdgeStyle;rounded=0;orthogonalLoop=1;jettySize=auto;html=1;entryX=0.5;entryY=0;entryDx=0;entryDy=0;strokeWidth=2;" edge="1" parent="1" source="0TGctXTPVE-8iXlW17Bm-17" target="0TGctXTPVE-8iXlW17Bm-2">
          <mxGeometry relative="1" as="geometry" />
        </mxCell>
        <mxCell id="0TGctXTPVE-8iXlW17Bm-25" value="input" style="edgeLabel;html=1;align=center;verticalAlign=middle;resizable=0;points=[];" vertex="1" connectable="0" parent="0TGctXTPVE-8iXlW17Bm-24">
          <mxGeometry x="-0.2857" y="2" relative="1" as="geometry">
            <mxPoint as="offset" />
          </mxGeometry>
        </mxCell>
        <mxCell id="0TGctXTPVE-8iXlW17Bm-17" value="&lt;font style=&quot;font-size: 16px;&quot;&gt;&lt;b&gt;Task1 Prompt&lt;/b&gt;&lt;/font&gt;" style="text;html=1;strokeColor=none;fillColor=#67AB9F;align=center;verticalAlign=middle;whiteSpace=wrap;rounded=0;fillStyle=hatch;" vertex="1" parent="1">
          <mxGeometry x="20" y="460" width="125" height="30" as="geometry" />
        </mxCell>
        <mxCell id="0TGctXTPVE-8iXlW17Bm-34" style="edgeStyle=orthogonalEdgeStyle;rounded=0;orthogonalLoop=1;jettySize=auto;html=1;entryX=1;entryY=0.5;entryDx=0;entryDy=0;exitX=0.5;exitY=1;exitDx=0;exitDy=0;" edge="1" parent="1" source="0TGctXTPVE-8iXlW17Bm-18" target="0TGctXTPVE-8iXlW17Bm-31">
          <mxGeometry relative="1" as="geometry" />
        </mxCell>
        <mxCell id="0TGctXTPVE-8iXlW17Bm-42" value="output" style="edgeLabel;html=1;align=center;verticalAlign=middle;resizable=0;points=[];" vertex="1" connectable="0" parent="0TGctXTPVE-8iXlW17Bm-34">
          <mxGeometry x="-0.5672" relative="1" as="geometry">
            <mxPoint as="offset" />
          </mxGeometry>
        </mxCell>
        <mxCell id="0TGctXTPVE-8iXlW17Bm-18" value="&lt;font style=&quot;font-size: 18px;&quot;&gt;Task3Conversation&lt;/font&gt;" style="rounded=1;whiteSpace=wrap;html=1;sketch=1;curveFitting=1;jiggle=2;fillColor=#d5e8d4;strokeColor=#82b366;" vertex="1" parent="1">
          <mxGeometry x="492.5" y="560" width="180" height="60" as="geometry" />
        </mxCell>
        <mxCell id="0TGctXTPVE-8iXlW17Bm-29" style="edgeStyle=orthogonalEdgeStyle;rounded=0;orthogonalLoop=1;jettySize=auto;html=1;entryX=0.5;entryY=0;entryDx=0;entryDy=0;strokeWidth=2;" edge="1" parent="1" source="0TGctXTPVE-8iXlW17Bm-19" target="0TGctXTPVE-8iXlW17Bm-10">
          <mxGeometry relative="1" as="geometry" />
        </mxCell>
        <mxCell id="0TGctXTPVE-8iXlW17Bm-38" value="input" style="edgeLabel;html=1;align=center;verticalAlign=middle;resizable=0;points=[];" vertex="1" connectable="0" parent="0TGctXTPVE-8iXlW17Bm-29">
          <mxGeometry x="-0.2571" y="-2" relative="1" as="geometry">
            <mxPoint as="offset" />
          </mxGeometry>
        </mxCell>
        <mxCell id="0TGctXTPVE-8iXlW17Bm-19" value="&lt;font style=&quot;font-size: 16px;&quot;&gt;&lt;b&gt;Task2 Prompt&lt;/b&gt;&lt;/font&gt;" style="text;html=1;strokeColor=none;fillColor=#67AB9F;align=center;verticalAlign=middle;whiteSpace=wrap;rounded=0;fillStyle=hatch;" vertex="1" parent="1">
          <mxGeometry x="270" y="460" width="125" height="30" as="geometry" />
        </mxCell>
        <mxCell id="0TGctXTPVE-8iXlW17Bm-30" style="edgeStyle=orthogonalEdgeStyle;rounded=0;orthogonalLoop=1;jettySize=auto;html=1;entryX=0.5;entryY=0;entryDx=0;entryDy=0;" edge="1" parent="1" source="0TGctXTPVE-8iXlW17Bm-20" target="0TGctXTPVE-8iXlW17Bm-18">
          <mxGeometry relative="1" as="geometry" />
        </mxCell>
        <mxCell id="0TGctXTPVE-8iXlW17Bm-39" value="input" style="edgeLabel;html=1;align=center;verticalAlign=middle;resizable=0;points=[];" vertex="1" connectable="0" parent="0TGctXTPVE-8iXlW17Bm-30">
          <mxGeometry x="-0.2" y="1" relative="1" as="geometry">
            <mxPoint as="offset" />
          </mxGeometry>
        </mxCell>
        <mxCell id="0TGctXTPVE-8iXlW17Bm-20" value="&lt;font style=&quot;font-size: 16px;&quot;&gt;&lt;b&gt;Task3 Prompt&lt;/b&gt;&lt;/font&gt;" style="text;html=1;strokeColor=none;fillColor=#67AB9F;align=center;verticalAlign=middle;whiteSpace=wrap;rounded=0;fillStyle=hatch;" vertex="1" parent="1">
          <mxGeometry x="520" y="460" width="125" height="30" as="geometry" />
        </mxCell>
        <mxCell id="0TGctXTPVE-8iXlW17Bm-44" style="edgeStyle=orthogonalEdgeStyle;rounded=0;orthogonalLoop=1;jettySize=auto;html=1;strokeWidth=2;" edge="1" parent="1" source="0TGctXTPVE-8iXlW17Bm-31" target="0TGctXTPVE-8iXlW17Bm-43">
          <mxGeometry relative="1" as="geometry" />
        </mxCell>
        <mxCell id="0TGctXTPVE-8iXlW17Bm-31" value="&lt;font style=&quot;&quot;&gt;&lt;span style=&quot;font-size: 18px;&quot;&gt;任务结果组合模块&lt;/span&gt;&lt;br&gt;&lt;font color=&quot;#660000&quot;&gt;&lt;b&gt;子任务结果组合拼装&lt;/b&gt;&lt;/font&gt;&lt;br&gt;&lt;/font&gt;" style="rounded=0;whiteSpace=wrap;html=1;fillColor=#ffe6cc;strokeColor=#d79b00;" vertex="1" parent="1">
          <mxGeometry x="237.5" y="740" width="190" height="60" as="geometry" />
        </mxCell>
        <mxCell id="0TGctXTPVE-8iXlW17Bm-43" value="&lt;font style=&quot;font-size: 16px;&quot;&gt;&lt;b&gt;结果Completion&lt;/b&gt;&lt;/font&gt;" style="text;html=1;strokeColor=none;fillColor=#67AB9F;align=center;verticalAlign=middle;whiteSpace=wrap;rounded=0;fillStyle=hatch;" vertex="1" parent="1">
          <mxGeometry x="270" y="860" width="125" height="30" as="geometry" />
        </mxCell>
        <mxCell id="0TGctXTPVE-8iXlW17Bm-46" value="&lt;h1&gt;分治组合思想&lt;/h1&gt;&lt;p&gt;&lt;br&gt;&lt;/p&gt;" style="text;html=1;strokeColor=none;fillColor=none;spacing=5;spacingTop=-20;whiteSpace=wrap;overflow=hidden;rounded=0;" vertex="1" parent="1">
          <mxGeometry x="254.5" y="-30" width="161" height="40" as="geometry" />
        </mxCell>
      </root>
    </mxGraphModel>
  </diagram>
</mxfile>
